<svg height='100px' width='100px'  fill="#bf5050" xmlns="http://www.w3.org/2000/svg" xmlns:xlink="http://www.w3.org/1999/xlink" version="1.1" x="0px" y="0px" viewBox="0 0 256 256" style="enable-background:new 0 0 256 256;" xml:space="preserve"><path d="M105.99,128.93L66.93,89.87c-1.84-1.84-2.86-4.3-2.86-6.91s1.02-5.06,2.86-6.91l8.81-8.82c1.9-1.9,4.4-2.86,6.91-2.86  c2.5,0,5,0.95,6.91,2.86l39.06,39.06l39.06-39.06c3.81-3.81,10-3.81,13.81,0l8.81,8.82c1.84,1.84,2.86,4.3,2.86,6.91  s-1.02,5.06-2.86,6.91l-39.06,39.06l39.06,39.06c1.84,1.84,2.86,4.3,2.86,6.91s-1.02,5.06-2.86,6.91l-8.81,8.82  c-3.81,3.81-10,3.81-13.81,0l-39.06-39.06l-39.06,39.06c-3.81,3.81-10,3.81-13.81,0l-8.81-8.82c-1.84-1.84-2.86-4.3-2.86-6.91  s1.02-5.06,2.86-6.91L105.99,128.93z"></path></svg>